<?xml version="1.0" encoding="UTF-8" standalone="no"?>
<svg width="90px" height="90px" viewBox="0 0 90 90" version="1.1" xmlns="http://www.w3.org/2000/svg" xmlns:xlink="http://www.w3.org/1999/xlink" xmlns:sketch="http://www.bohemiancoding.com/sketch/ns">
    <!-- Generator: Sketch 3.3.3 (12072) - http://www.bohemiancoding.com/sketch -->
    <title>Oval 2 Copy 4</title>
    <desc>Created with Sketch.</desc>
    <defs></defs>
    <g id="Page-1" stroke="none" stroke-width="1" fill="none" fill-rule="evenodd" sketch:type="MSPage">
        <path d="M45,90 C69.8528137,90 90,69.8528137 90,45 C90,20.1471863 69.8528137,0 45,0 C20.1471863,0 0,20.1471863 0,45 C0,69.8528137 20.1471863,90 45,90 Z M45.106383,26.8586429 L60,18 L60,58.0562507 L45.106383,66.9148936 L45.106383,26.8586429 Z M33.4468085,66.6382979 C37.5595673,66.6382979 40.893617,63.3995067 40.893617,59.4042553 C40.893617,55.4090039 37.5595673,52.1702128 33.4468085,52.1702128 C29.3340497,52.1702128 26,55.4090039 26,59.4042553 C26,63.3995067 29.3340497,66.6382979 33.4468085,66.6382979 Z" id="Oval-2-Copy-4" fill="#4B434D" sketch:type="MSShapeGroup"></path>
    </g>
</svg>